<svg enable-background="new 0 0 64 64" height="512" viewBox="0 0 64 64" width="512" xmlns="http://www.w3.org/2000/svg"><path d="m19.5 26.5v22h29s0-19 0-27-2-16-13-16z" fill="#826ec8"/><path d="m38.5 28.5v9.254h.001c14.999 3.876 15.999 6.895 15.999 13.746v11h-37s0-5.505 0-9.818c0-7.182-.055-11.182 11.945-14.182v-4z" fill="#ffb4be"/><path d="m17.5 60.5v2h37s0-.611 0-2z" fill="#f0a0aa"/><path d="m21.5 62.5c0-1.398-.978-3.285-1.566-4.978l.064.103c-.556.111-1.505.221-2.498-.018v-.085c0-1.557 0-3.277 0-4.84 0-6.204-.041-10.034 7.681-12.895l.319 1.713s2 2 12 0l5.689-2.665c10.53 3.351 11.311 6.611 11.311 12.665v5.461c-6.506 1.369-9 .533-9 .533v.006 5z" fill="#f0f0e6"/><g fill="#dcdcd2"><path d="m21.07 60.5c.249.719.43 1.405.43 2h24v-2z"/><path d="m48.014 58.247c-1.806 0-2.614-.258-2.673-.278-.262-.087-.403-.371-.315-.633.088-.261.369-.404.63-.315.041.013 2.528.759 8.741-.548.269-.061.536.115.592.387.057.27-.116.535-.386.592-2.957.621-5.108.795-6.589.795z"/><path d="m45.5 63c-.276 0-.5-.224-.5-.5v-10.011c0-.276.224-.5.5-.5s.5.224.5.5v10.011c0 .276-.224.5-.5.5z"/><path d="m21.5 63c-.276 0-.5-.224-.5-.5 0-.903-.49-2.129-.964-3.314-.51-1.273-1.036-2.589-1.036-3.686 0-2.072 1.953-6.978 2.036-7.186.103-.257.396-.381.65-.278.256.103.381.394.279.649-.02.049-1.965 4.934-1.965 6.815 0 .903.49 2.129.964 3.314.51 1.273 1.036 2.589 1.036 3.686 0 .276-.224.5-.5.5z"/><path d="m18.75 58.251c-.427 0-.891-.043-1.368-.157-.269-.064-.434-.335-.369-.604s.337-.431.604-.369c.929.225 1.829.104 2.283.014.27-.056.534.121.588.392s-.121.534-.392.589c-.359.072-.824.135-1.346.135z"/></g><path d="m26.5 55.5c-4-3-5-9-5-9l4 3 5 6z" fill="#f0dc78"/><path d="m39.5 48.5s-5 5-9 7h-4l5-5z" fill="#f0dc78"/><path d="m30.5 56h-4c-.202 0-.385-.122-.462-.309-.078-.187-.035-.402.108-.545l5-5c.064-.064.145-.109.232-.132l8-2c.217-.053.445.044.556.239s.078.44-.082.6c-.207.206-5.104 5.08-9.13 7.094-.068.034-.144.053-.222.053zm-2.793-1h2.674c2.608-1.333 5.667-3.968 7.395-5.554l-6.02 1.505z" fill="#c8b450"/><path d="m26.5 55.5h4v3h-4z" fill="#f0dc78"/><path d="m26.5 58.5c-1 1-1.018 4-1.018 4h6.018s0-3-1-4z" fill="#f0dc78"/><path d="m25.679 60.5c-.19 1.024-.197 2-.197 2h6.018s-.001-.976-.186-2z" fill="#dcc864"/><path d="m26.5 56c-.105 0-.21-.033-.3-.1-4.113-3.085-5.151-9.065-5.193-9.318-.034-.201.059-.403.233-.51.175-.104.396-.095.56.027l4 3c.031.023.06.051.084.08l3.182 3.818c.166.199.152.491-.031.674l-2.182 2.182c-.096.097-.225.147-.353.147zm-4.195-8.271c.507 1.807 1.709 5.066 4.156 7.104l1.544-1.544-2.852-3.423z" fill="#c8b450"/><path d="m30.5 59h-4c-.276 0-.5-.224-.5-.5v-3c0-.276.224-.5.5-.5h4c.276 0 .5.224.5.5v3c0 .276-.224.5-.5.5zm-3.5-1h3v-2h-3z" fill="#c8b450"/><path d="m31.5 63h-6.018c-.133 0-.261-.053-.354-.147s-.146-.223-.146-.355c.002-.328.051-3.237 1.164-4.351.094-.094.221-.147.354-.147h4c.133 0 .26.053.354.146 1.114 1.115 1.146 4.026 1.146 4.354 0 .276-.224.5-.5.5zm-5.5-1h4.985c-.054-1.013-.268-2.373-.716-3h-3.539c-.45.627-.669 1.987-.73 3z" fill="#c8b450"/><path d="m25.5 41.5s2 2 12 0l-9 12-3-6z" fill="#f0f0e6"/><path d="m54.5 63h-37c-.276 0-.5-.224-.5-.5v-9.817c0-7.188 0-11.497 11.944-14.571v-3.612c0-.276.224-.5.5-.5s.5.224.5.5v4c0 .229-.156.43-.379.485-11.565 2.892-11.565 6.47-11.565 13.599v9.416h36v-10.5c0-6.402-.664-9.65-15.625-13.516-.221-.057-.375-.256-.375-.484v-5.76c0-.276.224-.5.5-.5s.5.224.5.5v5.373c14.543 3.808 16 7.162 16 14.387v11c0 .276-.224.5-.5.5z" fill="#785ae6"/><path d="m28.5 53.5s-4-10-1-16c0 0-6 1-10 6 0 0 1 4 11 10z" fill="#8296dc"/><path d="m26.542 40.724c.164-1.141.465-2.237.958-3.224 0 0-6 1-10 6 0 0 .176.666 1.036 1.845 2.88-2.932 6.357-4.173 8.006-4.621z" fill="#96aaf0"/><path d="m27.582 50.71c-.105-.372-.212-.769-.317-1.192-4.275-1.857-6.783-6.042-7.783-8.06-.261.226-.518.464-.772.715 1.191 2.35 4.013 6.785 8.872 8.537z" fill="#f0f0e6"/><path d="m19.482 41.458c-.261.226-.518.464-.772.715.285.563.667 1.247 1.145 1.984.27-.22.541-.433.813-.628-.51-.79-.911-1.516-1.186-2.071z" fill="#fffffa"/><path d="m28.5 53.5s7-14 12-17c0 0 7 2 12 6 0 0-8 6-24 11z" fill="#8296dc"/><path d="m38.5 38.5s6.557 1.881 11.512 5.63c1.651-1.006 2.488-1.63 2.488-1.63-5-4-12-6-12-6-.944.567-1.96 1.527-2.987 2.71.336-.277.666-.517.987-.71z" fill="#96aaf0"/><path d="m50.125 40.829c-7.766 5.143-16.5 7.966-19.588 8.865-.245.437-.471.848-.679 1.229 1.673-.448 12.134-3.406 21.174-9.497-.299-.206-.601-.405-.907-.597z" fill="#f0f0e6"/><path d="m48.457 43.049c.865-.517 1.728-1.052 2.576-1.624-.3-.205-.602-.404-.908-.596-.864.572-1.741 1.112-2.621 1.627.32.191.637.389.953.593z" fill="#fffffa"/><path d="m28.5 54c-.089 0-.178-.023-.257-.071-10.062-6.037-11.185-10.136-11.228-10.308-.038-.151-.003-.312.094-.434 4.073-5.091 10.056-6.139 10.309-6.181.183-.035.372.045.484.196s.129.353.045.521c-2.864 5.728.978 15.493 1.017 15.591.08.199.023.427-.14.566-.093.08-.208.12-.324.12zm-10.432-10.405c.367.849 2.168 4.127 9.481 8.733-.927-2.797-2.688-9.305-.903-14.112-1.771.49-5.689 1.907-8.578 5.379z" fill="#785ae6"/><path d="m28.5 54c-.144 0-.284-.062-.381-.176-.13-.153-.156-.368-.066-.548.289-.577 7.124-14.165 12.19-17.205.119-.07.263-.089.395-.052.29.082 7.154 2.073 12.175 6.09.121.097.19.244.188.398s-.076.3-.2.393c-.081.061-8.252 6.108-24.151 11.077-.05.015-.1.023-.15.023zm12.073-16.956c-4.007 2.603-9.362 12.357-11.075 15.614 12.727-4.114 20.171-8.826 22.16-10.178-4.328-3.252-9.937-5.083-11.085-5.436z" fill="#785ae6"/><path d="m19.5 41.923c-.276 0-.5-.224-.5-.5v-14.923c0-.109.036-.216.102-.303l16-21c.095-.124.242-.197.398-.197 12.101 0 13.5 9.417 13.5 16.5v18.366c0 .276-.224.5-.5.5s-.5-.224-.5-.5v-18.366c0-10.617-3.782-15.408-12.253-15.499l-15.747 20.668v14.754c0 .276-.224.5-.5.5z" fill="#785ae6"/><ellipse cx="22.25" cy="24.114" fill="#e678a0" rx="4.75" ry="5.614"/><path d="m22.25 30.228c-2.895 0-5.25-2.743-5.25-6.114s2.355-6.114 5.25-6.114 5.25 2.742 5.25 6.113-2.355 6.115-5.25 6.115zm0-11.228c-2.343 0-4.25 2.294-4.25 5.113 0 2.82 1.907 5.114 4.25 5.114s4.25-2.294 4.25-5.114c0-2.819-1.907-5.113-4.25-5.113z" fill="#785ae6"/><path d="m23.114 28.186c-1.942 0-3.523-1.827-3.523-4.072s1.581-4.072 3.523-4.072 3.522 1.827 3.522 4.072-1.58 4.072-3.522 4.072zm0-7.145c-1.391 0-2.523 1.378-2.523 3.072s1.132 3.072 2.523 3.072 2.522-1.378 2.522-3.072-1.131-3.072-2.522-3.072z" fill="#785ae6"/><path d="m21.5 13.5v14c0 3.866 3.134 7 7 7h5c3.314 0 6-2.686 6-6h2c1.657 0 3-1.343 3-3v-1c0-1.657-1.343-3-3-3h-2v-8z" fill="#ffc8d2"/><g fill="#785ae6"><path d="m38.375 32.24c-.101 0-.203-.03-.291-.094-.225-.16-.276-.473-.116-.697.666-.928 1.032-1.975 1.032-2.949 0-.276.224-.5.5-.5h2c1.378 0 2.5-1.121 2.5-2.5v-1c0-1.379-1.122-2.5-2.5-2.5h-1.811c-.276 0-.5-.224-.5-.5s.224-.5.5-.5h1.811c1.93 0 3.5 1.57 3.5 3.5v1c0 1.93-1.57 3.5-3.5 3.5h-1.524c-.1 1.034-.507 2.073-1.193 3.031-.098.137-.252.209-.408.209z"/><path d="m31.5 35h-3c-4.136 0-7.5-3.364-7.5-7.5v-10c0-.276.224-.5.5-.5s.5.224.5.5v10c0 3.584 2.916 6.5 6.5 6.5h3c.276 0 .5.224.5.5s-.224.5-.5.5z"/><path d="m31.5 26c-.276 0-.5-.224-.5-.5v-3c0-.276.224-.5.5-.5s.5.224.5.5v3c0 .276-.224.5-.5.5z"/><path d="m23.5 26c-.276 0-.5-.224-.5-.5v-3c0-.276.224-.5.5-.5s.5.224.5.5v3c0 .276-.224.5-.5.5z"/><path d="m26.5 28c-1.739 0-2.892-1.292-2.892-2.146 0-.242.088-.461.249-.615.112-.11.315-.239.643-.239.289 0 1.034-1.186 1.526-2.658.087-.261.371-.405.632-.316.262.088.403.371.316.633-.321.964-1.173 3.155-2.327 3.331.042.094.123.223.258.363.188.194.719.647 1.595.647.276 0 .5.224.5.5s-.224.5-.5.5z"/><path d="m28.5 31c-2.472 0-2.5-1.438-2.5-1.5 0-.276.224-.5.5-.5.268 0 .487.211.5.476.028.183.376.524 1.5.524 2.23 0 2.506-.565 2.508-.571 0-.276.22-.465.496-.465s.496.26.496.536c0 .352-.252 1.5-3.5 1.5zm-1.5-1.5h.01z"/><path d="m31.5 24.041c-.125 0-.25-.046-.346-.14-.199-.191-.206-.508-.014-.707l1-1.041c.192-.197.508-.207.707-.014.199.191.206.508.014.707l-1 1.041c-.099.102-.23.154-.361.154z"/><path d="m23.5 24.041c-.131 0-.262-.052-.36-.153l-1-1.041c-.191-.199-.185-.516.014-.707.198-.193.516-.184.707.014l1 1.041c.191.199.185.516-.014.707-.097.093-.222.139-.347.139z"/><path d="m34.5 22c-.209 0-.404-.133-.474-.342-.35-1.05-1.013-1.651-1.972-1.788-.738-.107-1.39.102-1.396.104-.265.089-.545-.056-.632-.316-.087-.262.054-.545.316-.633.035-.012.873-.286 1.854-.146.938.134 2.181.67 2.778 2.462.087.262-.054.545-.316.633-.053.018-.106.026-.158.026z"/><path d="m21.5 21.326c-.087 0-.175-.022-.256-.07-.237-.142-.314-.449-.173-.686 1.163-1.948 3.418-1.58 3.515-1.562.272.047.454.306.407.578-.047.271-.301.459-.577.407-.079-.015-1.683-.257-2.486 1.089-.095.157-.26.244-.43.244z"/></g><path d="m35.5 7.5c3.13 1.789 1 7-5 9s-9 3-9 5c0 0-4-1-2-7s9-11 16-7z" fill="#826ec8"/><path d="m34.5 12.5s0 8 5 9h2s0-5 0-8-5.02-5.104-5.02-5.104z" fill="#826ec8"/><path d="m41.5 22h-2c-3.933-.776-5.047-5.193-5.371-7.758-.035-.274.16-.524.434-.559.276-.044.524.16.559.434.29 2.298 1.256 6.249 4.477 6.893l1.401-.007v-7.503c0-2.632-4.667-4.624-4.713-4.644-.255-.106-.375-.4-.268-.654.107-.255.398-.375.654-.268.218.091 5.327 2.271 5.327 5.566v8c0 .276-.224.5-.5.5z" fill="#785ae6"/><path d="m41.5 7.5c-4-4-11-4-15-3-3.881.97-7.277 4.904-7.277 10.952l.004-.002c.076-.304.162-.617.273-.95 2-6 9-11 16-7 .493.282.841.656 1.079 1.081 1.946 1.974 2.921 4.014 2.921 10.919h5s1-8-3-12z" fill="#e678a0"/><path d="m19.5 14.5c.011-.034.028-.067.039-.101.926-4.312 3.779-7.103 6.961-7.899 4-1 11-1 15 3 2.367 2.367 2.979 6.127 3.088 8.809.105-2.375-.032-7.753-3.088-10.809-4-4-11-4-15-3-3.881.97-7.277 4.904-7.277 10.952l.004-.002c.075-.303.162-.616.273-.95z" fill="#fa8cb4"/><path d="m44.5 20h-5c-.276 0-.5-.224-.5-.5 0-6.668-.88-8.673-2.854-10.646-.195-.195-.195-.512 0-.707s.512-.195.707 0c2.124 2.123 3.099 4.227 3.145 10.854h4.046c.131-1.696.359-7.89-2.898-11.146-4.113-4.113-11.3-3.676-14.525-2.868-3.434.857-6.898 4.427-6.898 10.467 0 .276-.224.5-.5.5s-.5-.224-.5-.5c0-6.579 3.845-10.485 7.656-11.438 4.753-1.188 11.626-.716 15.475 3.132 4.125 4.125 3.185 12.079 3.143 12.416-.032.248-.245.436-.497.436z" fill="#785ae6"/><path d="m21.5 22c-.041 0-.081-.005-.121-.015-.061-.016-1.503-.392-2.348-1.931-.788-1.437-.79-3.358-.005-5.713 1.222-3.665 4.125-6.761 7.577-8.08 3.034-1.16 6.195-.88 9.146.804 1.199.686 1.807 1.883 1.668 3.284-.223 2.25-2.399 5.172-6.758 6.625-5.584 1.861-8.659 2.886-8.659 4.526 0 .154-.071.3-.192.395-.089.069-.198.105-.308.105zm8.824-15.438c-1.128 0-2.256.211-3.365.635-3.179 1.214-5.856 4.073-6.985 7.462-.693 2.079-.715 3.733-.066 4.915.352.641.834 1.013 1.197 1.218.592-1.884 3.676-2.912 9.237-4.766 3.913-1.304 5.895-3.907 6.079-5.774.071-.712-.075-1.691-1.169-2.316-1.598-.915-3.262-1.374-4.928-1.374z" fill="#785ae6"/><ellipse cx="41.25" cy="24.114" fill="#e678a0" rx="4.75" ry="5.614"/><path d="m41.25 30.228c-2.895 0-5.25-2.743-5.25-6.114s2.355-6.114 5.25-6.114 5.25 2.742 5.25 6.113-2.355 6.115-5.25 6.115zm0-11.228c-2.343 0-4.25 2.294-4.25 5.113 0 2.82 1.907 5.114 4.25 5.114s4.25-2.294 4.25-5.114c0-2.819-1.907-5.113-4.25-5.113z" fill="#785ae6"/><ellipse cx="42.114" cy="24.114" fill="#fffa96" rx="3.023" ry="3.572"/><path d="m42.114 28.186c-1.942 0-3.523-1.827-3.523-4.072s1.581-4.072 3.523-4.072 3.522 1.827 3.522 4.072-1.58 4.072-3.522 4.072zm0-7.145c-1.391 0-2.523 1.378-2.523 3.072s1.132 3.072 2.523 3.072 2.522-1.378 2.522-3.072-1.131-3.072-2.522-3.072z" fill="#785ae6"/><path d="m11.5 33.5c1.581 1.581-4.257 8.705-7 5-2.145-2.898 4-8 7-5z" fill="#e678a0"/><path d="m6.449 40.055c-.932 0-1.737-.428-2.351-1.257-1.244-1.681-.213-3.801 1.36-5.156 1.783-1.535 4.544-2.345 6.395-.495.312.312.609.919.25 2.036-.639 1.986-2.965 4.473-5.122 4.827-.181.03-.359.045-.532.045zm2.794-6.973c-1.089 0-2.25.558-3.131 1.317-1.184 1.02-2.066 2.645-1.209 3.803.505.682 1.133.951 1.918.821 1.753-.288 3.803-2.505 4.332-4.147.155-.481.153-.864-.005-1.022-.546-.545-1.211-.772-1.905-.772z" fill="#785ae6"/><path d="m11.5 34c-.204 0-.396-.126-.47-.329l-4-11c-.095-.26.04-.547.299-.641.26-.094.546.039.641.299l4 11c.095.26-.04.547-.299.641-.057.02-.114.03-.171.03z" fill="#785ae6"/><path d="m8.591 25.5s3.909 0 5.909-3l-1-4s-3 4-6 4z" fill="#e678a0"/><path d="m8.591 26c-.21 0-.398-.132-.47-.329l-1.091-3c-.056-.153-.033-.324.06-.458.094-.134.247-.213.41-.213 2.713 0 5.572-3.762 5.6-3.8.116-.155.307-.23.499-.19.189.038.339.182.386.369l1 4c.034.137.009.281-.069.398-2.124 3.186-6.155 3.223-6.325 3.223zm-.399-3.06.742 2.039c.928-.082 3.513-.496 5.026-2.578l-.706-2.823c-.978 1.098-2.941 3.001-5.062 3.362z" fill="#785ae6"/><path d="m55.478 12.422c.43 1.588-5.904 3.998-6.298.629-.308-2.635 5.482-3.642 6.298-.629z" fill="#fffa96"/><path d="m51.405 15.248c-.445 0-.869-.062-1.24-.201-.858-.32-1.371-.991-1.481-1.938-.164-1.395.986-2.575 2.861-2.937 1.76-.339 3.891.179 4.417 2.119.095.35.063.897-.624 1.523-.886.806-2.52 1.434-3.933 1.434zm1.155-4.174c-.278 0-.557.027-.826.079-1.07.207-2.17.87-2.057 1.839.066.566.34.933.839 1.118 1.18.442 3.235-.205 4.147-1.035.261-.238.356-.438.333-.522-.286-1.055-1.349-1.479-2.436-1.479z" fill="#785ae6"/><path d="m55.479 12.922c-.028 0-.057-.002-.086-.008-.272-.047-.455-.306-.407-.578l1.473-8.485c.048-.272.308-.458.578-.406.272.047.455.306.407.578l-1.473 8.485c-.042.243-.253.414-.492.414z" fill="#785ae6"/><path d="m56.55 6.251s2.495 1.431 4.87.248l.826-2.919s-3.379 1.455-5.294.357z" fill="#fffa96"/><path d="m59.367 7.47c-1.67 0-2.988-.74-3.066-.785-.183-.104-.28-.312-.244-.52l.402-2.314c.028-.16.132-.297.28-.366.148-.07.32-.062.461.019 1.673.957 4.815-.368 4.848-.382.179-.076.383-.042.527.083.145.128.204.326.151.512l-.826 2.919c-.038.136-.132.249-.258.312-.776.385-1.558.522-2.275.522zm-2.26-1.504c.667.293 2.31.855 3.895.177l.498-1.764c-1.048.324-2.771.706-4.164.267z" fill="#785ae6"/><path d="m38.5 38.642c-.276 0-.5-.224-.5-.5v-6.402c0-.276.224-.5.5-.5s.5.224.5.5v6.401c0 .277-.224.501-.5.501z" fill="#785ae6"/></svg>